<svg width="150" height="33" viewBox="0 0 150 33" fill="none" xmlns="http://www.w3.org/2000/svg">
<path fill-rule="evenodd" clip-rule="evenodd" d="M77.5168 0H72.8493V31.433C75.3767 32.3374 78.0378 32.8048 80.72 32.8156C88.4991 32.8156 92.9835 28.2067 92.9835 21.4777C92.9835 14.7486 88.4076 10.7849 82.3673 10.7849C80.731 10.8114 79.1151 11.1557 77.6083 11.7989L77.5168 0ZM44.0207 1.84358C43.2596 1.8432 42.5283 2.14129 41.9816 2.67469C41.4349 3.20809 41.1159 3.93489 41.0921 4.70112C41.0941 5.49146 41.4004 6.25022 41.9467 6.81761C42.4929 7.385 43.2365 7.71675 44.0207 7.74302C44.4117 7.73822 44.7979 7.6556 45.157 7.49989C45.5162 7.34418 45.8412 7.11847 46.1134 6.83575C46.3856 6.55303 46.5996 6.21888 46.743 5.85253C46.8865 5.48618 46.9566 5.09487 46.9494 4.70112C46.9256 3.93489 46.6066 3.20809 46.0599 2.67469C45.5132 2.14129 44.7819 1.8432 44.0207 1.84358ZM14.9176 28.1145C13.8656 28.523 12.7503 28.7414 11.6229 28.7598C7.50458 28.7598 4.66748 26.0866 4.66748 21.9385C4.66748 17.514 7.5961 15.1173 11.4399 15.1173C12.57 15.108 13.6903 15.3274 14.7346 15.7626C15.2262 14.5275 15.9055 13.3769 16.748 12.352C15.0051 11.41 13.0515 10.934 11.0738 10.9693C4.94204 10.9693 0 15.2095 0 22.0307C0 28.852 4.66748 33 11.0738 33C13.1782 33.0268 15.2555 32.5196 17.1141 31.5251C16.2354 30.4911 15.4968 29.3443 14.9176 28.1145ZM27.8218 10.7849C34.1367 10.7849 38.7126 15.3017 38.7126 21.8464C38.7126 28.3911 34.1367 32.8156 27.8218 32.8156C21.507 32.8156 17.0226 28.2989 17.0226 21.8464C17.0226 15.3939 21.507 10.7849 27.8218 10.7849ZM21.6901 21.8464C21.6901 17.6061 24.2526 14.8408 27.7303 14.8408C31.2081 14.8408 33.8621 17.514 33.8621 21.8464C33.8621 26.1788 31.3911 28.7598 27.7303 28.7598C24.2526 28.7598 21.6901 26.0866 21.6901 21.8464ZM41.6412 32.3548H46.3087V11.2458H41.6412V32.3548ZM50.4271 12.6285C53.505 11.4757 56.7535 10.8525 60.0366 10.7849C65.4362 10.7849 68.8225 12.8129 68.8225 18.8045V32.3548H64.155V19.1732C64.155 16.1313 62.2331 15.0251 59.6705 15.0251C58.1234 15.0326 56.5843 15.2496 55.0946 15.6704V32.3548H50.4271V12.6285ZM77.5168 28.3911C78.5882 28.6993 79.6972 28.8545 80.8115 28.852C85.1129 28.852 88.2245 26.4553 88.2245 21.5698C88.2607 20.7006 88.1175 19.8333 87.8037 19.0228C87.49 18.2122 87.0126 17.4761 86.4019 16.8609C85.7911 16.2458 85.0603 15.765 84.2555 15.449C83.4508 15.133 82.5896 14.9887 81.7267 15.0251C80.2593 14.9852 78.8074 15.3349 77.5168 16.0391V28.3911ZM102.502 14.8408C104.79 14.8408 106.528 15.8548 106.528 18.1592V19.9106H104.24C98.2001 19.9106 94.5394 22.0307 94.5394 26.271C94.5394 31.0642 98.5662 32.7235 103.966 32.7235C106.398 32.6961 108.82 32.4181 111.196 31.8939V17.9749C111.196 12.7207 107.901 10.7849 103.325 10.7849C100.924 10.7498 98.5562 11.354 96.4613 12.5363V16.5922C98.2675 15.4397 100.363 14.832 102.502 14.8408ZM106.528 23.1369H104.515C101.22 23.1369 99.1153 24.0587 99.1153 26.271C99.1153 28.4832 101.129 29.3129 103.966 29.3129C104.827 29.3072 105.686 29.2146 106.528 29.0363V23.1369ZM120.897 29.0363C118.564 28.9364 116.322 28.0977 114.491 26.6397V31.1564C116.46 32.3207 118.705 32.9259 120.988 32.9078C125.564 32.9078 128.951 30.8799 128.951 26.4553C128.951 22.676 126.846 20.8324 122.087 19.8184C119.707 19.1732 118.792 18.4358 118.792 17.0531C118.792 15.6704 119.89 14.6564 121.904 14.6564C124.031 14.7146 126.083 15.4576 127.761 16.7765V12.4441C125.953 11.3055 123.852 10.7284 121.721 10.7849C117.419 10.7849 114.216 12.905 114.216 17.1453C114.216 20.8324 116.046 22.5838 120.439 23.5978C123.185 24.3352 124.375 24.8883 124.375 26.6397C124.375 28.3911 123.002 29.0363 120.897 29.0363ZM135.357 22.8603V22.9525C135.631 26.7318 138.835 28.7598 142.129 28.7598C144.632 28.8475 147.098 28.1379 149.176 26.7318V30.8799C146.938 32.2203 144.367 32.8917 141.763 32.8156C135.174 32.8156 130.781 28.6676 130.781 21.9385C130.781 15.2095 135.174 10.7849 140.94 10.7849C147.071 10.7849 150 14.7486 150 20.4637V22.8603H135.357ZM140.848 14.7486C143.868 14.7486 145.516 16.5922 145.607 19.8184H135.54C136.181 16.6844 138.103 14.7486 140.848 14.7486Z" fill="#1452F5"/>
</svg>
