<svg width="291" height="194" viewBox="0 0 291 194" fill="none" xmlns="http://www.w3.org/2000/svg">
<rect x="101.074" y="43.4443" width="96.1665" height="36.5077" rx="18.2538" transform="rotate(45 101.074 43.4443)" fill="#344378" fill-opacity="0.7"/>
<rect x="144.75" y="2.75" width="94.0583" height="36.5077" rx="18.2538" transform="rotate(45 144.75 2.75)" fill="#344378"/>
<path d="M198.352 56.3519C205.48 63.4804 205.48 75.0381 198.352 82.1667L156.167 124.352C149.038 131.48 137.48 131.48 130.352 124.352C123.223 117.223 123.223 105.666 130.352 98.537L172.537 56.3519C179.666 49.2233 191.223 49.2233 198.352 56.3519Z" fill="#344378" fill-opacity="0.7"/>
<rect x="167.815" y="25.8147" width="96.1665" height="36.5077" rx="18.2538" transform="rotate(135 167.815 25.8147)" fill="#97ECA5"/>
<path d="M35.3579 160.145H41.6939C42.9899 160.193 43.7819 160.529 44.0699 161.153C44.3099 161.609 44.4299 162.281 44.4299 163.169V171.089C44.4299 171.857 44.0939 172.589 43.4219 173.285C41.4059 175.373 38.3819 176.417 34.3499 176.417C30.7739 176.417 27.6659 175.073 25.0259 172.385C22.3859 169.673 21.0659 166.409 21.0659 162.593C21.0659 158.777 22.4099 155.597 25.0979 153.053C27.7859 150.485 30.9539 149.201 34.6019 149.201C37.4339 149.201 40.1099 150.137 42.6299 152.009C43.2779 152.489 43.6019 153.029 43.6019 153.629C43.6019 154.205 43.3259 154.877 42.7739 155.645C41.8379 156.917 40.9859 157.553 40.2179 157.553C39.7619 157.553 39.0299 157.229 38.0219 156.581C37.0139 155.909 35.8139 155.573 34.4219 155.573C32.5979 155.573 30.9779 156.221 29.5619 157.517C28.1459 158.789 27.4379 160.469 27.4379 162.557C27.4379 164.621 28.1579 166.385 29.5979 167.849C31.0379 169.289 32.6699 170.009 34.4939 170.009C35.8139 170.009 37.0019 169.793 38.0579 169.361V165.437H35.2139C34.4699 165.437 33.9419 165.341 33.6299 165.149C33.3179 164.957 33.1139 164.681 33.0179 164.321C32.9219 163.937 32.8739 163.433 32.8739 162.809C32.8739 162.161 32.9219 161.645 33.0179 161.261C33.1379 160.877 33.3419 160.613 33.6299 160.469C34.0619 160.253 34.6379 160.145 35.3579 160.145ZM63.6491 149.345C67.2011 149.345 70.2851 150.629 72.9011 153.197C75.5171 155.765 76.8251 158.957 76.8251 162.773C76.8251 166.565 75.5771 169.805 73.0811 172.493C70.5851 175.157 67.5131 176.489 63.8651 176.489C60.2171 176.489 57.1091 175.169 54.5411 172.529C51.9971 169.889 50.7251 166.745 50.7251 163.097C50.7251 161.105 51.0851 159.245 51.8051 157.517C52.5251 155.765 53.4851 154.301 54.6851 153.125C55.8851 151.949 57.2651 151.025 58.8251 150.353C60.3851 149.681 61.9931 149.345 63.6491 149.345ZM57.0971 162.917C57.0971 165.053 57.7811 166.793 59.1491 168.137C60.5411 169.457 62.0891 170.117 63.7931 170.117C65.4971 170.117 67.0331 169.469 68.4011 168.173C69.7691 166.877 70.4531 165.137 70.4531 162.953C70.4531 160.769 69.7571 159.017 68.3651 157.697C66.9971 156.377 65.4611 155.717 63.7571 155.717C62.0531 155.717 60.5171 156.389 59.1491 157.733C57.7811 159.053 57.0971 160.781 57.0971 162.917ZM95.5231 149.345C99.0751 149.345 102.159 150.629 104.775 153.197C107.391 155.765 108.699 158.957 108.699 162.773C108.699 166.565 107.451 169.805 104.955 172.493C102.459 175.157 99.3871 176.489 95.7391 176.489C92.0911 176.489 88.9831 175.169 86.4151 172.529C83.8711 169.889 82.5991 166.745 82.5991 163.097C82.5991 161.105 82.9591 159.245 83.6791 157.517C84.3991 155.765 85.3591 154.301 86.5591 153.125C87.7591 151.949 89.1391 151.025 90.6991 150.353C92.2591 149.681 93.8671 149.345 95.5231 149.345ZM88.9711 162.917C88.9711 165.053 89.6551 166.793 91.0231 168.137C92.4151 169.457 93.9631 170.117 95.6671 170.117C97.3711 170.117 98.9071 169.469 100.275 168.173C101.643 166.877 102.327 165.137 102.327 162.953C102.327 160.769 101.631 159.017 100.239 157.697C98.8711 156.377 97.3351 155.717 95.6311 155.717C93.9271 155.717 92.3911 156.389 91.0231 157.733C89.6551 159.053 88.9711 160.781 88.9711 162.917ZM118.217 149.633L124.877 149.669C128.357 149.669 131.417 150.929 134.057 153.449C136.697 155.945 138.017 159.029 138.017 162.701C138.017 166.349 136.721 169.481 134.129 172.097C131.561 174.713 128.441 176.021 124.769 176.021H118.181C116.717 176.021 115.805 175.721 115.445 175.121C115.157 174.617 115.013 173.849 115.013 172.817V152.801C115.013 152.225 115.025 151.805 115.049 151.541C115.097 151.277 115.217 150.965 115.409 150.605C115.745 149.957 116.681 149.633 118.217 149.633ZM124.877 169.649C126.605 169.649 128.165 169.013 129.557 167.741C130.949 166.445 131.645 164.825 131.645 162.881C131.645 160.937 130.961 159.317 129.593 158.021C128.249 156.701 126.665 156.041 124.841 156.041H121.385V169.649H124.877ZM143.24 172.349C142.616 171.581 142.304 170.897 142.304 170.297C142.304 169.673 142.82 168.857 143.852 167.849C144.452 167.273 145.088 166.985 145.76 166.985C146.432 166.985 147.368 167.585 148.568 168.785C148.904 169.193 149.384 169.589 150.008 169.973C150.632 170.333 151.208 170.513 151.736 170.513C153.968 170.513 155.084 169.601 155.084 167.777C155.084 167.225 154.772 166.769 154.148 166.409C153.548 166.025 152.792 165.749 151.88 165.581C150.968 165.413 149.984 165.149 148.928 164.789C147.872 164.405 146.888 163.961 145.976 163.457C145.064 162.953 144.296 162.161 143.672 161.081C143.072 159.977 142.772 158.657 142.772 157.121C142.772 155.009 143.552 153.173 145.112 151.613C146.696 150.029 148.844 149.237 151.556 149.237C152.996 149.237 154.304 149.429 155.48 149.813C156.68 150.173 157.508 150.545 157.964 150.929L158.864 151.613C159.608 152.309 159.98 152.897 159.98 153.377C159.98 153.857 159.692 154.517 159.116 155.357C158.3 156.557 157.46 157.157 156.596 157.157C156.092 157.157 155.468 156.917 154.724 156.437C154.652 156.389 154.508 156.269 154.292 156.077C154.1 155.885 153.92 155.729 153.752 155.609C153.248 155.297 152.6 155.141 151.808 155.141C151.04 155.141 150.392 155.333 149.864 155.717C149.36 156.077 149.108 156.593 149.108 157.265C149.108 157.913 149.408 158.441 150.008 158.849C150.632 159.257 151.4 159.533 152.312 159.677C153.224 159.821 154.22 160.049 155.3 160.361C156.38 160.649 157.376 161.009 158.288 161.441C159.2 161.873 159.956 162.629 160.556 163.709C161.18 164.765 161.492 166.073 161.492 167.633C161.492 169.193 161.18 170.573 160.556 171.773C159.932 172.949 159.116 173.861 158.108 174.509C156.164 175.781 154.088 176.417 151.88 176.417C150.752 176.417 149.684 176.285 148.676 176.021C147.668 175.733 146.852 175.385 146.228 174.977C144.956 174.209 144.068 173.465 143.564 172.745L143.24 172.349ZM167.728 149.633H187.744C188.512 149.633 189.076 149.729 189.436 149.921C189.796 150.089 190.036 150.365 190.156 150.749C190.276 151.133 190.336 151.637 190.336 152.261C190.336 152.885 190.276 153.389 190.156 153.773C190.036 154.133 189.832 154.385 189.544 154.529C189.112 154.745 188.5 154.853 187.708 154.853H180.832V172.961C180.832 173.513 180.808 173.921 180.76 174.185C180.736 174.449 180.628 174.761 180.436 175.121C180.268 175.457 179.956 175.697 179.5 175.841C179.044 175.985 178.444 176.057 177.7 176.057C176.956 176.057 176.356 175.985 175.9 175.841C175.468 175.697 175.156 175.457 174.964 175.121C174.796 174.761 174.688 174.449 174.64 174.185C174.616 173.897 174.604 173.477 174.604 172.925V154.853H167.692C166.924 154.853 166.36 154.769 166 154.601C165.64 154.409 165.4 154.121 165.28 153.737C165.16 153.353 165.1 152.849 165.1 152.225C165.1 151.601 165.16 151.109 165.28 150.749C165.4 150.365 165.604 150.101 165.892 149.957C166.324 149.741 166.936 149.633 167.728 149.633ZM206.106 151.541L215.826 171.629C216.234 172.445 216.438 173.057 216.438 173.465C216.438 174.329 215.742 175.109 214.35 175.805C213.534 176.213 212.886 176.417 212.406 176.417C211.95 176.417 211.566 176.309 211.254 176.093C210.966 175.877 210.75 175.649 210.606 175.409C210.486 175.169 210.306 174.809 210.066 174.329L208.194 170.441H198.222L196.35 174.329C196.11 174.809 195.918 175.157 195.774 175.373C195.654 175.589 195.438 175.817 195.126 176.057C194.838 176.273 194.454 176.381 193.974 176.381C193.518 176.381 192.882 176.177 192.066 175.769C190.674 175.097 189.978 174.329 189.978 173.465C189.978 173.057 190.182 172.445 190.59 171.629L200.31 151.505C200.574 150.953 200.97 150.509 201.498 150.173C202.05 149.837 202.626 149.669 203.226 149.669C204.522 149.669 205.482 150.293 206.106 151.541ZM203.19 160.181L200.814 165.113H205.602L203.19 160.181ZM233.669 162.809C237.341 166.337 239.945 168.989 241.481 170.765C242.273 171.653 242.669 172.409 242.669 173.033C242.669 173.633 242.189 174.353 241.229 175.193C240.269 176.009 239.477 176.417 238.853 176.417C238.253 176.417 237.521 175.913 236.657 174.905L228.737 165.869V172.889C228.737 173.465 228.713 173.885 228.665 174.149C228.641 174.413 228.533 174.725 228.341 175.085C228.005 175.733 227.069 176.057 225.533 176.057C223.853 176.057 222.869 175.601 222.581 174.689C222.437 174.305 222.365 173.693 222.365 172.853V152.837C222.365 152.285 222.377 151.877 222.401 151.613C222.449 151.325 222.569 151.001 222.761 150.641C223.097 149.993 224.033 149.669 225.569 149.669C227.249 149.669 228.245 150.113 228.557 151.001C228.677 151.409 228.737 152.033 228.737 152.873V159.749C232.001 156.077 234.641 153.065 236.657 150.713C237.497 149.729 238.229 149.237 238.853 149.237C239.477 149.237 240.269 149.657 241.229 150.497C242.189 151.313 242.669 152.033 242.669 152.657C242.669 153.257 242.309 153.977 241.589 154.817C240.197 156.425 238.037 158.633 235.109 161.441L233.669 162.809ZM255.689 169.685H266.777C267.329 169.685 267.737 169.709 268.001 169.757C268.289 169.781 268.613 169.889 268.973 170.081C269.621 170.417 269.945 171.353 269.945 172.889C269.945 174.569 269.501 175.553 268.613 175.841C268.205 175.985 267.581 176.057 266.741 176.057H252.485C250.805 176.057 249.821 175.601 249.533 174.689C249.389 174.305 249.317 173.693 249.317 172.853V152.837C249.317 151.613 249.545 150.785 250.001 150.353C250.457 149.897 251.321 149.669 252.593 149.669H266.777C267.329 149.669 267.737 149.693 268.001 149.741C268.289 149.765 268.613 149.873 268.973 150.065C269.621 150.401 269.945 151.337 269.945 152.873C269.945 154.553 269.501 155.537 268.613 155.825C268.205 155.969 267.581 156.041 266.741 156.041H255.689V159.677H262.817C263.369 159.677 263.777 159.701 264.041 159.749C264.329 159.773 264.653 159.881 265.013 160.073C265.661 160.409 265.985 161.345 265.985 162.881C265.985 164.561 265.529 165.545 264.617 165.833C264.209 165.977 263.585 166.049 262.745 166.049H255.689V169.685Z" fill="#344378"/>
</svg>
