<svg width="217" height="41" viewBox="0 0 217 41" fill="none" xmlns="http://www.w3.org/2000/svg">
<path d="M191.353 20.8652C190.234 20.1246 189 19.5979 187.831 18.9396C187.074 18.5116 186.268 18.1331 185.609 17.59C184.49 16.6683 184.721 14.8579 185.889 14.0679C187.568 12.9487 190.349 13.5741 190.646 15.8619C190.646 15.9112 190.695 15.9441 190.744 15.9441H193.279C193.345 15.9441 193.394 15.8948 193.378 15.8289C193.246 14.2489 192.637 12.9323 191.518 12.0929C190.448 11.2864 189.23 10.8585 187.93 10.8585C181.232 10.8585 180.623 17.9521 184.227 20.1904C184.638 20.4537 188.177 22.2312 189.428 23.0048C190.679 23.7783 191.074 25.1937 190.53 26.3129C190.037 27.3333 188.753 28.041 187.469 27.9587C186.07 27.8764 184.984 27.1194 184.606 25.9344C184.54 25.7204 184.507 25.3089 184.507 25.1279C184.507 25.0785 184.457 25.0291 184.408 25.0291H181.66C181.61 25.0291 181.561 25.0785 181.561 25.1279C181.561 27.1194 182.055 28.2221 183.404 29.226C184.671 30.1806 186.054 30.5756 187.486 30.5756C191.238 30.5756 193.18 28.4525 193.575 26.2471C193.921 24.091 193.279 22.1489 191.353 20.8652Z" fill="#161616"/>
<path d="M72.0164 11.2206H70.7985H69.4654C69.416 11.2206 69.3831 11.2535 69.3666 11.2864L67.1119 18.7256C67.079 18.8244 66.9473 18.8244 66.9144 18.7256L64.6597 11.2864C64.6432 11.2371 64.6103 11.2206 64.5609 11.2206H63.2278H62.0099H60.3641C60.3148 11.2206 60.2654 11.27 60.2654 11.3194V30.3123C60.2654 30.3617 60.3148 30.411 60.3641 30.411H63.1126C63.162 30.411 63.2114 30.3617 63.2114 30.3123V15.8783C63.2114 15.7631 63.3759 15.7467 63.4089 15.8454L65.6801 23.3339L65.8446 23.8606C65.8611 23.91 65.894 23.9264 65.9434 23.9264H68.05C68.0994 23.9264 68.1323 23.8935 68.1488 23.8606L68.3133 23.3339L70.5845 15.8454C70.6174 15.7302 70.782 15.7631 70.782 15.8783V30.3123C70.782 30.3617 70.8314 30.411 70.8808 30.411H73.6293C73.6786 30.411 73.728 30.3617 73.728 30.3123V11.3194C73.728 11.27 73.6786 11.2206 73.6293 11.2206H72.0164Z" fill="#161616"/>
<path d="M149.27 11.2206C149.221 11.2206 149.188 11.2535 149.171 11.2864L146.917 18.7256C146.884 18.8244 146.752 18.8244 146.719 18.7256L144.464 11.2864C144.448 11.2371 144.415 11.2206 144.366 11.2206H140.185C140.136 11.2206 140.087 11.27 140.087 11.3194V30.3123C140.087 30.3617 140.136 30.411 140.185 30.411H142.934C142.983 30.411 143.033 30.3617 143.033 30.3123V15.8783C143.033 15.7631 143.197 15.7467 143.23 15.8454L145.501 23.3339L145.666 23.8606C145.682 23.91 145.715 23.9264 145.765 23.9264H147.871C147.921 23.9264 147.954 23.8935 147.97 23.8606L148.135 23.3339L150.406 15.8454C150.439 15.7302 150.603 15.7631 150.603 15.8783V30.3123C150.603 30.3617 150.653 30.411 150.702 30.411H153.451C153.5 30.411 153.549 30.3617 153.549 30.3123V11.3194C153.549 11.27 153.5 11.2206 153.451 11.2206H149.27Z" fill="#161616"/>
<path d="M113.82 11.2206H108.701H105.953H100.834C100.785 11.2206 100.736 11.27 100.736 11.3194V13.6894C100.736 13.7387 100.785 13.7881 100.834 13.7881H105.854V30.3123C105.854 30.3617 105.903 30.411 105.953 30.411H108.701C108.751 30.411 108.8 30.3617 108.8 30.3123V13.7881H113.82C113.869 13.7881 113.918 13.7387 113.918 13.6894V11.3194C113.918 11.27 113.886 11.2206 113.82 11.2206Z" fill="#161616"/>
<path d="M130.031 30.411H132.532C132.598 30.411 132.648 30.3452 132.631 30.2794L127.463 11.2206C127.447 11.1712 127.414 11.1548 127.365 11.1548H126.41H124.731H123.777C123.727 11.1548 123.695 11.1877 123.678 11.2206L118.51 30.2794C118.494 30.3452 118.543 30.411 118.609 30.411H121.111C121.16 30.411 121.193 30.3781 121.209 30.3452L122.707 24.7987C122.724 24.7494 122.756 24.7329 122.806 24.7329H128.336C128.385 24.7329 128.418 24.7658 128.434 24.7987L129.932 30.3452C129.949 30.3781 129.998 30.411 130.031 30.411ZM123.464 22.0173L125.472 14.5946C125.505 14.4958 125.637 14.4958 125.669 14.5946L127.677 22.0173C127.694 22.0831 127.644 22.149 127.579 22.149H123.563C123.497 22.149 123.448 22.0831 123.464 22.0173Z" fill="#161616"/>
<path d="M172.69 30.411H175.191C175.257 30.411 175.307 30.3452 175.29 30.2794L170.122 11.2206C170.106 11.1712 170.073 11.1548 170.024 11.1548H169.069H167.39H166.436C166.386 11.1548 166.353 11.1877 166.337 11.2206L161.169 30.2794C161.153 30.3452 161.202 30.411 161.268 30.411H163.77C163.819 30.411 163.852 30.3781 163.868 30.3452L165.366 24.7987C165.382 24.7494 165.415 24.7329 165.465 24.7329H170.995C171.044 24.7329 171.077 24.7658 171.093 24.7987L172.591 30.3452C172.608 30.3781 172.64 30.411 172.69 30.411ZM166.123 22.0173L168.131 14.5946C168.164 14.4958 168.296 14.4958 168.328 14.5946L170.336 22.0173C170.353 22.0831 170.303 22.149 170.238 22.149H166.222C166.156 22.149 166.107 22.0831 166.123 22.0173Z" fill="#161616"/>
<path d="M84.8864 27.5966V21.7046C84.8864 21.6552 84.9358 21.6058 84.9852 21.6058H92.309C92.3583 21.6058 92.4077 21.5564 92.4077 21.5071V19.1371C92.4077 19.0877 92.3583 19.0383 92.309 19.0383H84.9852C84.9358 19.0383 84.8864 18.9889 84.8864 18.9396V13.9033C84.8864 13.8539 84.9358 13.8046 84.9852 13.8046H93.3129C93.3623 13.8046 93.4116 13.7552 93.4116 13.7058V11.3358C93.4116 11.2864 93.3623 11.2371 93.3129 11.2371H84.8864H82.0392C81.9898 11.2371 81.9404 11.2864 81.9404 11.3358V13.8046V19.0548V21.6223V27.7119V30.3123C81.9404 30.3616 81.9898 30.411 82.0392 30.411H84.8864H93.6585C93.7079 30.411 93.7573 30.3616 93.7573 30.3123V27.8106C93.7573 27.7612 93.7079 27.7119 93.6585 27.7119H84.9687C84.9193 27.6954 84.8864 27.6625 84.8864 27.5966Z" fill="#161616"/>
<path d="M216.468 30.2464L206.955 20.4208C206.922 20.3879 206.922 20.3221 206.955 20.2891L215.514 11.4016C215.579 11.3358 215.53 11.2371 215.448 11.2371H211.942C211.909 11.2371 211.893 11.2535 211.876 11.27L204.618 18.8079C204.553 18.8737 204.454 18.8244 204.454 18.7421V11.3358C204.454 11.2864 204.404 11.2371 204.355 11.2371H201.607C201.557 11.2371 201.508 11.2864 201.508 11.3358V30.3287C201.508 30.3781 201.557 30.4275 201.607 30.4275H204.355C204.404 30.4275 204.454 30.3781 204.454 30.3287V21.9679C204.454 21.8856 204.569 21.8362 204.618 21.9021L212.847 30.3946C212.864 30.411 212.897 30.4275 212.913 30.4275H216.419C216.485 30.411 216.534 30.2958 216.468 30.2464Z" fill="#161616"/>
<path d="M41.4867 1L24.8477 13.3438L27.9418 6.06917L41.4867 1Z" fill="#E17726" stroke="#E17726" stroke-linecap="round" stroke-linejoin="round"/>
<path d="M3.10669 1L19.5976 13.459L16.6516 6.06917L3.10669 1Z" fill="#E27625" stroke="#E27625" stroke-linecap="round" stroke-linejoin="round"/>
<path d="M35.496 29.621L31.0688 36.4019L40.5486 39.0187L43.2642 29.7692L35.496 29.621Z" fill="#E27625" stroke="#E27625" stroke-linecap="round" stroke-linejoin="round"/>
<path d="M1.3457 29.7692L4.04481 39.0187L13.5082 36.4019L9.09741 29.621L1.3457 29.7692Z" fill="#E27625" stroke="#E27625" stroke-linecap="round" stroke-linejoin="round"/>
<path d="M12.998 18.166L10.3647 22.1489L19.7458 22.5769L19.4331 12.455L12.998 18.166Z" fill="#E27625" stroke="#E27625" stroke-linecap="round" stroke-linejoin="round"/>
<path d="M31.5954 18.166L25.0616 12.3398L24.8477 22.5769L34.2287 22.149L31.5954 18.166Z" fill="#E27625" stroke="#E27625" stroke-linecap="round" stroke-linejoin="round"/>
<path d="M13.5081 36.4019L19.1861 33.6533L14.298 29.835L13.5081 36.4019Z" fill="#E27625" stroke="#E27625" stroke-linecap="round" stroke-linejoin="round"/>
<path d="M25.4072 33.6533L31.0688 36.4019L30.2952 29.835L25.4072 33.6533Z" fill="#E27625" stroke="#E27625" stroke-linecap="round" stroke-linejoin="round"/>
<path d="M31.0688 36.4019L25.4072 33.6533L25.8681 37.34L25.8187 38.9035L31.0688 36.4019Z" fill="#D5BFB2" stroke="#D5BFB2" stroke-linecap="round" stroke-linejoin="round"/>
<path d="M13.5081 36.4019L18.7746 38.9035L18.7417 37.34L19.1861 33.6533L13.5081 36.4019Z" fill="#D5BFB2" stroke="#D5BFB2" stroke-linecap="round" stroke-linejoin="round"/>
<path d="M18.8735 27.3992L14.1665 26.0167L17.491 24.4861L18.8735 27.3992Z" fill="#233447" stroke="#233447" stroke-linecap="round" stroke-linejoin="round"/>
<path d="M25.72 27.3992L27.1024 24.4861L30.4434 26.0167L25.72 27.3992Z" fill="#233447" stroke="#233447" stroke-linecap="round" stroke-linejoin="round"/>
<path d="M13.5082 36.4019L14.3311 29.621L9.09741 29.7692L13.5082 36.4019Z" fill="#CC6228" stroke="#CC6228" stroke-linecap="round" stroke-linejoin="round"/>
<path d="M30.2625 29.621L31.0689 36.4019L35.4961 29.7692L30.2625 29.621Z" fill="#CC6228" stroke="#CC6228" stroke-linecap="round" stroke-linejoin="round"/>
<path d="M34.2287 22.149L24.8477 22.5769L25.7199 27.3992L27.1024 24.486L30.4434 26.0167L34.2287 22.149Z" fill="#CC6228" stroke="#CC6228" stroke-linecap="round" stroke-linejoin="round"/>
<path d="M14.1665 26.0167L17.4911 24.486L18.8735 27.3992L19.7458 22.5769L10.3647 22.149L14.1665 26.0167Z" fill="#CC6228" stroke="#CC6228" stroke-linecap="round" stroke-linejoin="round"/>
<path d="M10.3645 22.149L14.298 29.835L14.1663 26.0167L10.3645 22.149Z" fill="#E27525" stroke="#E27525" stroke-linecap="round" stroke-linejoin="round"/>
<path d="M30.4433 26.0167L30.2952 29.835L34.2286 22.149L30.4433 26.0167Z" fill="#E27525" stroke="#E27525" stroke-linecap="round" stroke-linejoin="round"/>
<path d="M19.7456 22.5769L18.8733 27.3992L19.976 33.0937L20.2228 25.5887L19.7456 22.5769Z" fill="#E27525" stroke="#E27525" stroke-linecap="round" stroke-linejoin="round"/>
<path d="M24.8475 22.5769L24.3867 25.5723L24.6171 33.0937L25.7198 27.3992L24.8475 22.5769Z" fill="#E27525" stroke="#E27525" stroke-linecap="round" stroke-linejoin="round"/>
<path d="M25.7199 27.3992L24.6172 33.0937L25.4072 33.6533L30.2952 29.835L30.4433 26.0167L25.7199 27.3992Z" fill="#F5841F" stroke="#F5841F" stroke-linecap="round" stroke-linejoin="round"/>
<path d="M14.1665 26.0167L14.2982 29.835L19.1862 33.6533L19.9762 33.0937L18.8735 27.3992L14.1665 26.0167Z" fill="#F5841F" stroke="#F5841F" stroke-linecap="round" stroke-linejoin="round"/>
<path d="M25.8186 38.9035L25.868 37.34L25.4401 36.9779H19.1531L18.7417 37.34L18.7746 38.9035L13.5081 36.4019L15.3514 37.916L19.0873 40.5H25.4895L29.2419 37.916L31.0687 36.4019L25.8186 38.9035Z" fill="#C0AC9D" stroke="#C0AC9D" stroke-linecap="round" stroke-linejoin="round"/>
<path d="M25.4072 33.6533L24.6172 33.0938H19.976L19.1861 33.6533L18.7417 37.34L19.1531 36.9779H25.4401L25.868 37.34L25.4072 33.6533Z" fill="#161616" stroke="#161616" stroke-linecap="round" stroke-linejoin="round"/>
<path d="M42.1944 14.1502L43.5933 7.33646L41.4867 1L25.4072 12.9323L31.5954 18.166L40.3346 20.7171L42.2602 18.4623L41.4208 17.8533L42.7539 16.6354L41.7335 15.8454L43.0666 14.825L42.1944 14.1502Z" fill="#763E1A" stroke="#763E1A" stroke-linecap="round" stroke-linejoin="round"/>
<path d="M1 7.33646L2.41539 14.1502L1.5102 14.825L2.85975 15.8454L1.83936 16.6354L3.17245 17.8533L2.3331 18.4623L4.25868 20.7171L12.9979 18.166L19.1861 12.9323L3.10662 1L1 7.33646Z" fill="#763E1A" stroke="#763E1A" stroke-linecap="round" stroke-linejoin="round"/>
<path d="M40.3345 20.7171L31.5953 18.166L34.2286 22.149L30.2952 29.835L35.4959 29.7692H43.2641L40.3345 20.7171Z" fill="#F5841F" stroke="#F5841F" stroke-linecap="round" stroke-linejoin="round"/>
<path d="M12.998 18.166L4.25877 20.7171L1.3457 29.7692H9.09741L14.2981 29.835L10.3647 22.149L12.998 18.166Z" fill="#F5841F" stroke="#F5841F" stroke-linecap="round" stroke-linejoin="round"/>
<path d="M24.8477 22.5769L25.4073 12.9323L27.9418 6.06915H16.6516L19.1861 12.9323L19.7457 22.5769L19.9597 25.6052L19.9761 33.0937H24.6173L24.6337 25.6052L24.8477 22.5769Z" fill="#F5841F" stroke="#F5841F" stroke-linecap="round" stroke-linejoin="round"/>
</svg>
